<mxfile host="65bd71144e">
    <diagram id="99YIV30c1iwatZ08gYIQ" name="Page-1">
        <mxGraphModel dx="532" dy="376" grid="1" gridSize="11" guides="1" tooltips="1" connect="1" arrows="1" fold="1" page="1" pageScale="1" pageWidth="827" pageHeight="1169" background="#ffffff" math="0" shadow="1">
            <root>
                <mxCell id="0"/>
                <mxCell id="1" parent="0"/>
                <mxCell id="99" value="" style="edgeStyle=none;html=1;labelBackgroundColor=#CC0000;fontSize=11;fontColor=#FF8000;strokeWidth=3;entryX=0.5;entryY=0;entryDx=0;entryDy=0;sketch=0;shadow=1;strokeColor=#000000;" parent="1" source="58" target="69" edge="1">
                    <mxGeometry relative="1" as="geometry">
                        <mxPoint x="156" y="99" as="targetPoint"/>
                    </mxGeometry>
                </mxCell>
                <mxCell id="58" value="&lt;span style=&quot;color: rgb(255, 255, 255); font-size: 25px; font-weight: 400;&quot;&gt;Start&lt;/span&gt;" style="ellipse;whiteSpace=wrap;html=1;fontStyle=1;horizontal=1;fontSize=25;sketch=0;shadow=1;strokeColor=#005700;fillColor=#008a00;fontColor=#ffffff;" parent="1" vertex="1">
                    <mxGeometry x="93.5" y="11" width="121" height="43" as="geometry"/>
                </mxCell>
                <mxCell id="91" value="" style="edgeStyle=none;html=1;labelBackgroundColor=#CC0000;fontSize=11;fontColor=#FFFF66;strokeWidth=3;sketch=0;shadow=1;strokeColor=#000000;" parent="1" source="64" target="90" edge="1">
                    <mxGeometry relative="1" as="geometry"/>
                </mxCell>
                <mxCell id="64" value="&lt;font color=&quot;#b3ff66&quot;&gt;void&lt;/font&gt;&lt;font color=&quot;#ffff66&quot;&gt;&amp;nbsp;GetArray&lt;/font&gt;&lt;br&gt;&lt;font color=&quot;#66b2ff&quot; style=&quot;font-weight: normal&quot;&gt;(inputArray)&lt;/font&gt;" style="whiteSpace=wrap;html=1;labelBorderColor=none;fontSize=13;fontStyle=1;sketch=0;shadow=1;strokeColor=#000000;fillColor=#6600CC;" parent="1" vertex="1">
                    <mxGeometry x="88" y="165" width="132" height="55" as="geometry"/>
                </mxCell>
                <mxCell id="103" value="" style="edgeStyle=none;html=1;labelBackgroundColor=#CC0000;fontSize=11;fontColor=#FFFF66;strokeWidth=3;entryX=0.5;entryY=0;entryDx=0;entryDy=0;exitX=0.5;exitY=1;exitDx=0;exitDy=0;sketch=0;shadow=1;strokeColor=#000000;" parent="1" source="64" target="100" edge="1">
                    <mxGeometry relative="1" as="geometry">
                        <mxPoint x="154" y="231" as="sourcePoint"/>
                        <mxPoint x="156" y="265.5" as="targetPoint"/>
                    </mxGeometry>
                </mxCell>
                <mxCell id="81" value="" style="edgeStyle=none;html=1;labelBackgroundColor=#CC0000;fontSize=10;fontColor=#99FF33;strokeWidth=3;entryX=0;entryY=0.5;entryDx=0;entryDy=0;sketch=0;shadow=1;strokeColor=#000000;" parent="1" source="66" target="172" edge="1">
                    <mxGeometry relative="1" as="geometry">
                        <mxPoint x="547.5" y="280.5" as="targetPoint"/>
                    </mxGeometry>
                </mxCell>
                <mxCell id="86" value="" style="edgeStyle=none;html=1;labelBackgroundColor=#CC0000;fontSize=11;fontColor=#99FF33;strokeWidth=3;sketch=0;shadow=1;strokeColor=#000000;" parent="1" source="66" edge="1">
                    <mxGeometry relative="1" as="geometry">
                        <mxPoint x="325.0000000000001" y="279.5" as="targetPoint"/>
                    </mxGeometry>
                </mxCell>
                <mxCell id="66" value="&lt;span style=&quot;color: rgb(153 , 255 , 51) ; font-size: 10px&quot;&gt;&lt;font color=&quot;#66ffff&quot;&gt;&amp;nbsp;i&amp;nbsp;&lt;/font&gt;&amp;nbsp;&lt;font color=&quot;#ffff66&quot;&gt;&amp;lt;&lt;/font&gt;&amp;nbsp;&amp;nbsp;&lt;font color=&quot;#66ffff&quot;&gt;array.Length&lt;/font&gt;&lt;/span&gt;" style="rhombus;whiteSpace=wrap;html=1;fontSize=13;labelBorderColor=none;fontStyle=0;sketch=0;shadow=1;strokeColor=#000000;fillColor=#000000;" parent="1" vertex="1">
                    <mxGeometry x="365" y="252" width="154" height="55" as="geometry"/>
                </mxCell>
                <mxCell id="76" value="" style="edgeStyle=none;html=1;labelBackgroundColor=#CC0000;fontSize=11;fontColor=#99FF33;strokeWidth=3;entryX=0.5;entryY=0;entryDx=0;entryDy=0;sketch=0;shadow=1;strokeColor=#000000;" parent="1" source="69" target="64" edge="1">
                    <mxGeometry relative="1" as="geometry">
                        <mxPoint x="156" y="177" as="targetPoint"/>
                    </mxGeometry>
                </mxCell>
                <mxCell id="69" value="&lt;span style=&quot;color: rgb(255 , 128 , 0)&quot;&gt;Input quantity of&lt;/span&gt;&lt;br style=&quot;color: rgb(255 , 128 , 0)&quot;&gt;&lt;span style=&quot;color: rgb(255 , 128 , 0)&quot;&gt;array elements (N)&lt;/span&gt;" style="whiteSpace=wrap;html=1;labelBorderColor=none;fontSize=11;sketch=0;shadow=1;strokeColor=#6F0000;fillColor=#000000;fontColor=#ffffff;" parent="1" vertex="1">
                    <mxGeometry x="88" y="88" width="132" height="47" as="geometry"/>
                </mxCell>
                <mxCell id="82" value="Yes" style="text;html=1;resizable=0;autosize=1;align=center;verticalAlign=middle;points=[];rounded=0;labelBorderColor=none;fontSize=14;fontStyle=1;sketch=0;shadow=1;strokeColor=#000000;fontColor=#3333FF;" parent="1" vertex="1">
                    <mxGeometry x="497" y="252" width="44" height="22" as="geometry"/>
                </mxCell>
                <mxCell id="96" value="" style="edgeStyle=none;html=1;labelBackgroundColor=#CC0000;fontSize=11;fontColor=#B3FF66;strokeWidth=3;entryX=1;entryY=0.5;entryDx=0;entryDy=0;exitX=0.5;exitY=0;exitDx=0;exitDy=0;sketch=0;shadow=1;strokeColor=#000000;" parent="1" source="172" target="90" edge="1">
                    <mxGeometry relative="1" as="geometry">
                        <mxPoint x="602" y="231" as="sourcePoint"/>
                        <mxPoint x="601.5000000000001" y="193.4999999999999" as="targetPoint"/>
                        <Array as="points">
                            <mxPoint x="605" y="194"/>
                        </Array>
                    </mxGeometry>
                </mxCell>
                <mxCell id="88" value="&lt;font color=&quot;#cc0000&quot; style=&quot;font-size: 14px;&quot;&gt;No&lt;/font&gt;" style="text;html=1;resizable=0;autosize=1;align=center;verticalAlign=middle;points=[];rounded=0;labelBorderColor=none;fontSize=14;fontStyle=1;sketch=0;shadow=1;strokeColor=#000000;" parent="1" vertex="1">
                    <mxGeometry x="345" y="252" width="33" height="22" as="geometry"/>
                </mxCell>
                <mxCell id="93" value="" style="edgeStyle=none;html=1;labelBackgroundColor=#CC0000;fontSize=11;fontColor=#FFFF66;strokeWidth=3;entryX=0.5;entryY=0;entryDx=0;entryDy=0;sketch=0;shadow=1;strokeColor=#000000;" parent="1" source="90" target="66" edge="1">
                    <mxGeometry relative="1" as="geometry"/>
                </mxCell>
                <mxCell id="90" value="&lt;font color=&quot;#ffff66&quot; style=&quot;font-size: 11px&quot;&gt;Cycle&lt;/font&gt;&lt;span style=&quot;color: rgb(204 , 153 , 255) ; font-size: 11px&quot;&gt;&amp;nbsp; for&lt;/span&gt;" style="whiteSpace=wrap;html=1;fontSize=13;labelBorderColor=none;fontStyle=3;sketch=0;shadow=1;strokeColor=#000000;fillColor=#000000;" parent="1" vertex="1">
                    <mxGeometry x="382" y="182.5" width="120" height="22" as="geometry"/>
                </mxCell>
                <mxCell id="178" value="" style="edgeStyle=none;html=1;labelBackgroundColor=#CC0000;fontSize=9;fontColor=#66FFFF;strokeWidth=3;entryX=0.5;entryY=0;entryDx=0;entryDy=0;exitX=0.5;exitY=1;exitDx=0;exitDy=0;sketch=0;shadow=1;strokeColor=#000000;" parent="1" source="100" target="148" edge="1">
                    <mxGeometry relative="1" as="geometry">
                        <mxPoint x="154" y="418" as="sourcePoint"/>
                        <mxPoint x="154" y="451.5" as="targetPoint"/>
                    </mxGeometry>
                </mxCell>
                <mxCell id="242" value="" style="edgeStyle=none;sketch=0;html=1;shadow=1;labelBackgroundColor=#CC0000;fontSize=25;fontColor=#66FFFF;strokeWidth=3;entryX=0;entryY=0.25;entryDx=0;entryDy=0;exitX=0;exitY=0.75;exitDx=0;exitDy=0;strokeColor=#000000;" parent="1" source="100" target="234" edge="1">
                    <mxGeometry relative="1" as="geometry">
                        <mxPoint x="77" y="748" as="targetPoint"/>
                        <Array as="points">
                            <mxPoint x="55" y="382"/>
                            <mxPoint x="55" y="693"/>
                            <mxPoint x="55" y="847"/>
                            <mxPoint x="55" y="1003"/>
                        </Array>
                    </mxGeometry>
                </mxCell>
                <mxCell id="100" value="&lt;font color=&quot;#b3ff66&quot;&gt;void&amp;nbsp;&lt;/font&gt;&lt;font color=&quot;#ffff66&quot;&gt;ShowArray&lt;br&gt;&lt;/font&gt;&lt;span style=&quot;color: rgb(102 , 178 , 255) ; font-weight: 400&quot;&gt;(inputArray)&lt;/span&gt;&lt;font color=&quot;#ffff66&quot;&gt;&lt;br&gt;&lt;/font&gt;" style="whiteSpace=wrap;html=1;labelBorderColor=none;fontSize=13;fontStyle=1;sketch=0;shadow=1;strokeColor=#000000;fillColor=#6600CC;" parent="1" vertex="1">
                    <mxGeometry x="88" y="341" width="132" height="55" as="geometry"/>
                </mxCell>
                <mxCell id="131" value="" style="edgeStyle=none;html=1;labelBackgroundColor=#CC0000;fontSize=11;fontColor=#FFFF66;strokeWidth=3;exitX=1;exitY=0.5;exitDx=0;exitDy=0;sketch=0;shadow=1;strokeColor=#000000;" parent="1" source="100" target="142" edge="1">
                    <mxGeometry relative="1" as="geometry">
                        <mxPoint x="242" y="369" as="sourcePoint"/>
                    </mxGeometry>
                </mxCell>
                <mxCell id="132" value="" style="edgeStyle=none;html=1;labelBackgroundColor=#CC0000;fontSize=10;fontColor=#99FF33;strokeWidth=3;entryX=0;entryY=0.5;entryDx=0;entryDy=0;sketch=0;shadow=1;strokeColor=#000000;" parent="1" source="134" edge="1">
                    <mxGeometry relative="1" as="geometry">
                        <mxPoint x="550.5" y="455.5" as="targetPoint"/>
                    </mxGeometry>
                </mxCell>
                <mxCell id="133" value="" style="edgeStyle=none;html=1;labelBackgroundColor=#CC0000;fontSize=11;fontColor=#99FF33;strokeWidth=3;sketch=0;shadow=1;strokeColor=#000000;" parent="1" source="134" edge="1">
                    <mxGeometry relative="1" as="geometry">
                        <mxPoint x="325.0000000000001" y="454.5" as="targetPoint"/>
                    </mxGeometry>
                </mxCell>
                <mxCell id="134" value="&lt;span style=&quot;color: rgb(153 , 255 , 51) ; font-size: 10px&quot;&gt;&lt;font color=&quot;#66ffff&quot;&gt;&amp;nbsp;i&amp;nbsp;&lt;/font&gt;&amp;nbsp;&lt;font color=&quot;#ffff66&quot;&gt;&amp;lt;&lt;/font&gt;&amp;nbsp;&amp;nbsp;&lt;font color=&quot;#66ffff&quot;&gt;array.Length&lt;/font&gt;&lt;/span&gt;" style="rhombus;whiteSpace=wrap;html=1;fontSize=13;labelBorderColor=none;fontStyle=0;sketch=0;shadow=1;strokeColor=#000000;fillColor=#000000;" parent="1" vertex="1">
                    <mxGeometry x="368" y="427" width="154" height="55" as="geometry"/>
                </mxCell>
                <mxCell id="136" value="Yes" style="text;html=1;resizable=0;autosize=1;align=center;verticalAlign=middle;points=[];rounded=0;labelBorderColor=none;fontSize=14;fontStyle=1;sketch=0;shadow=1;strokeColor=#000000;fontColor=#3333FF;" parent="1" vertex="1">
                    <mxGeometry x="500" y="427" width="44" height="22" as="geometry"/>
                </mxCell>
                <mxCell id="137" value="" style="edgeStyle=none;html=1;labelBackgroundColor=#CC0000;fontSize=11;fontColor=#B3FF66;strokeWidth=3;entryX=1;entryY=0.5;entryDx=0;entryDy=0;sketch=0;shadow=1;strokeColor=#000000;" parent="1" target="142" edge="1">
                    <mxGeometry relative="1" as="geometry">
                        <mxPoint x="604.594827586207" y="439" as="sourcePoint"/>
                        <mxPoint x="604.5000000000001" y="368.4999999999999" as="targetPoint"/>
                        <Array as="points">
                            <mxPoint x="605" y="368.5"/>
                        </Array>
                    </mxGeometry>
                </mxCell>
                <mxCell id="140" value="&lt;font color=&quot;#cc0000&quot; style=&quot;font-size: 14px;&quot;&gt;No&lt;/font&gt;" style="text;html=1;resizable=0;autosize=1;align=center;verticalAlign=middle;points=[];rounded=0;labelBorderColor=none;fontSize=14;fontStyle=1;sketch=0;shadow=1;strokeColor=#000000;" parent="1" vertex="1">
                    <mxGeometry x="348" y="427" width="33" height="22" as="geometry"/>
                </mxCell>
                <mxCell id="141" value="" style="edgeStyle=none;html=1;labelBackgroundColor=#CC0000;fontSize=11;fontColor=#FFFF66;strokeWidth=3;entryX=0.5;entryY=0;entryDx=0;entryDy=0;sketch=0;shadow=1;strokeColor=#000000;" parent="1" source="142" target="134" edge="1">
                    <mxGeometry relative="1" as="geometry"/>
                </mxCell>
                <mxCell id="142" value="&lt;font color=&quot;#ffff66&quot; style=&quot;font-size: 11px&quot;&gt;Cycle&lt;/font&gt;&lt;span style=&quot;color: rgb(204 , 153 , 255) ; font-size: 11px&quot;&gt;&amp;nbsp; for&lt;/span&gt;" style="whiteSpace=wrap;html=1;fontSize=13;labelBorderColor=none;fontStyle=3;sketch=0;shadow=1;strokeColor=#000000;fillColor=#000000;" parent="1" vertex="1">
                    <mxGeometry x="385" y="357.5" width="120" height="22" as="geometry"/>
                </mxCell>
                <mxCell id="197" value="" style="edgeStyle=none;html=1;labelBackgroundColor=#CC0000;fontSize=9;fontColor=#CC99FF;strokeWidth=3;entryX=0;entryY=0.25;entryDx=0;entryDy=0;sketch=0;shadow=1;strokeColor=#000000;" parent="1" target="161" edge="1">
                    <mxGeometry relative="1" as="geometry">
                        <mxPoint x="220" y="542" as="sourcePoint"/>
                        <mxPoint x="326" y="555.5" as="targetPoint"/>
                        <Array as="points">
                            <mxPoint x="275" y="542"/>
                        </Array>
                    </mxGeometry>
                </mxCell>
                <mxCell id="204" value="" style="edgeStyle=none;html=1;labelBackgroundColor=#CC0000;fontSize=15;fontColor=#007FFF;strokeWidth=3;entryX=0.5;entryY=0;entryDx=0;entryDy=0;sketch=0;shadow=1;strokeColor=#000000;" parent="1" source="148" target="216" edge="1">
                    <mxGeometry relative="1" as="geometry">
                        <mxPoint x="154" y="671" as="targetPoint"/>
                    </mxGeometry>
                </mxCell>
                <mxCell id="148" value="&lt;font color=&quot;#b3ff66&quot;&gt;int&amp;nbsp;&lt;/font&gt;&lt;font color=&quot;#ffff66&quot;&gt;SortArray&lt;br&gt;&lt;/font&gt;&lt;span style=&quot;color: rgb(102 , 178 , 255) ; font-weight: 400&quot;&gt;(inputArray)&lt;/span&gt;&lt;font color=&quot;#ffff66&quot;&gt;&lt;br&gt;&lt;/font&gt;" style="whiteSpace=wrap;html=1;labelBorderColor=none;fontSize=13;fontStyle=1;sketch=0;shadow=1;strokeColor=#000000;fillColor=#6600CC;" parent="1" vertex="1">
                    <mxGeometry x="88" y="528" width="132" height="55" as="geometry"/>
                </mxCell>
                <mxCell id="151" value="" style="edgeStyle=none;html=1;labelBackgroundColor=#CC0000;fontSize=10;fontColor=#99FF33;strokeWidth=3;entryX=0;entryY=0.5;entryDx=0;entryDy=0;sketch=0;shadow=1;strokeColor=#000000;" parent="1" source="153" edge="1">
                    <mxGeometry relative="1" as="geometry">
                        <mxPoint x="550.5" y="642.5" as="targetPoint"/>
                    </mxGeometry>
                </mxCell>
                <mxCell id="152" value="" style="edgeStyle=none;html=1;labelBackgroundColor=#CC0000;fontSize=11;fontColor=#99FF33;strokeWidth=3;sketch=0;shadow=1;strokeColor=#000000;" parent="1" source="153" target="157" edge="1">
                    <mxGeometry relative="1" as="geometry"/>
                </mxCell>
                <mxCell id="166" value="" style="edgeStyle=none;html=1;labelBackgroundColor=#CC0000;fontSize=14;fontColor=#66FFFF;strokeWidth=3;sketch=0;shadow=1;strokeColor=#000000;" parent="1" edge="1">
                    <mxGeometry relative="1" as="geometry">
                        <mxPoint x="606" y="660" as="sourcePoint"/>
                        <mxPoint x="606" y="693" as="targetPoint"/>
                    </mxGeometry>
                </mxCell>
                <mxCell id="153" value="&lt;meta charset=&quot;utf-8&quot;&gt;&lt;span style=&quot;color: rgb(153, 255, 51); font-family: helvetica; font-size: 10px; font-style: normal; letter-spacing: normal; text-indent: 0px; text-transform: none; word-spacing: 0px; background-color: rgb(42, 42, 42);&quot;&gt;&lt;font color=&quot;#66ffff&quot;&gt;&amp;nbsp;i&amp;nbsp;&lt;/font&gt;&lt;span&gt;&amp;nbsp;&lt;/span&gt;&lt;font color=&quot;#ffff66&quot;&gt;&amp;lt;&lt;/font&gt;&amp;nbsp;&lt;span&gt;&amp;nbsp;&lt;/span&gt;&lt;font color=&quot;#66ffff&quot;&gt;array.Length&lt;/font&gt;&lt;/span&gt;" style="rhombus;whiteSpace=wrap;html=1;fontSize=13;labelBorderColor=none;align=center;fontStyle=0;sketch=0;shadow=1;strokeColor=#000000;fillColor=#000000;" parent="1" vertex="1">
                    <mxGeometry x="368" y="614.5" width="154" height="55" as="geometry"/>
                </mxCell>
                <mxCell id="155" value="Yes" style="text;html=1;resizable=0;autosize=1;align=center;verticalAlign=middle;points=[];rounded=0;labelBorderColor=none;fontSize=14;fontStyle=1;sketch=0;shadow=1;strokeColor=#000000;fontColor=#3333FF;" parent="1" vertex="1">
                    <mxGeometry x="500" y="614" width="44" height="22" as="geometry"/>
                </mxCell>
                <mxCell id="156" value="" style="edgeStyle=none;html=1;labelBackgroundColor=#CC0000;fontSize=11;fontColor=#B3FF66;strokeWidth=3;entryX=1;entryY=0.5;entryDx=0;entryDy=0;sketch=0;shadow=1;strokeColor=#000000;" parent="1" target="161" edge="1">
                    <mxGeometry relative="1" as="geometry">
                        <mxPoint x="604.594827586207" y="626" as="sourcePoint"/>
                        <mxPoint x="604.5000000000001" y="555.4999999999999" as="targetPoint"/>
                        <Array as="points">
                            <mxPoint x="605" y="555.5"/>
                        </Array>
                    </mxGeometry>
                </mxCell>
                <mxCell id="157" value="&lt;span style=&quot;font-size: 11px&quot;&gt;&lt;font color=&quot;#ff9999&quot;&gt;&lt;b&gt;End cycle&amp;nbsp;&lt;/b&gt;&lt;/font&gt;&lt;/span&gt;" style="shape=parallelogram;perimeter=parallelogramPerimeter;whiteSpace=wrap;html=1;fixedSize=1;fontSize=13;labelBorderColor=none;sketch=0;shadow=1;strokeColor=#000000;fillColor=#000000;" parent="1" vertex="1">
                    <mxGeometry x="243" y="625" width="92" height="34" as="geometry"/>
                </mxCell>
                <mxCell id="159" value="&lt;font color=&quot;#cc0000&quot; style=&quot;font-size: 14px;&quot;&gt;No&lt;/font&gt;" style="text;html=1;resizable=0;autosize=1;align=center;verticalAlign=middle;points=[];rounded=0;labelBorderColor=none;fontSize=14;fontStyle=1;sketch=0;shadow=1;strokeColor=#000000;" parent="1" vertex="1">
                    <mxGeometry x="348" y="614" width="33" height="22" as="geometry"/>
                </mxCell>
                <mxCell id="160" value="" style="edgeStyle=none;html=1;labelBackgroundColor=#CC0000;fontSize=11;fontColor=#FFFF66;strokeWidth=3;entryX=0.5;entryY=0;entryDx=0;entryDy=0;exitX=0.5;exitY=1;exitDx=0;exitDy=0;sketch=0;shadow=1;strokeColor=#000000;" parent="1" source="161" target="153" edge="1">
                    <mxGeometry relative="1" as="geometry"/>
                </mxCell>
                <mxCell id="201" value="" style="edgeStyle=none;html=1;labelBackgroundColor=#CC0000;fontSize=6;fontColor=#CC99FF;strokeWidth=3;entryX=1;entryY=0.75;entryDx=0;entryDy=0;exitX=0;exitY=0.75;exitDx=0;exitDy=0;sketch=0;shadow=1;strokeColor=#000000;" parent="1" source="161" target="148" edge="1">
                    <mxGeometry relative="1" as="geometry">
                        <mxPoint x="274" y="555.5" as="targetPoint"/>
                        <Array as="points"/>
                    </mxGeometry>
                </mxCell>
                <mxCell id="161" value="&lt;font style=&quot;font-family: &amp;#34;helvetica&amp;#34; ; font-size: 11px ; letter-spacing: normal ; text-align: center ; text-indent: 0px ; text-transform: none ; word-spacing: 0px ; background-color: rgb(42 , 42 , 42)&quot; color=&quot;#ffff66&quot;&gt;Cycle&amp;nbsp;&lt;/font&gt;&lt;span style=&quot;font-family: &amp;#34;helvetica&amp;#34; ; font-size: 11px ; letter-spacing: normal ; text-align: center ; text-indent: 0px ; text-transform: none ; word-spacing: 0px ; background-color: rgb(42 , 42 , 42) ; display: inline ; float: none ; color: rgb(204 , 153 , 255)&quot;&gt;&amp;nbsp;for&lt;/span&gt;" style="whiteSpace=wrap;html=1;fontSize=13;labelBorderColor=none;fontStyle=3;sketch=0;shadow=1;strokeColor=#000000;fillColor=#000000;" parent="1" vertex="1">
                    <mxGeometry x="385" y="528" width="120" height="55" as="geometry"/>
                </mxCell>
                <mxCell id="163" value="&lt;font color=&quot;#99ff33&quot; style=&quot;font-size: 11px&quot;&gt;Count elements&lt;br&gt;in array &amp;lt; 3&amp;nbsp;&amp;nbsp;&lt;/font&gt;&lt;font color=&quot;#ffff66&quot; style=&quot;font-size: 11px&quot;&gt;(&lt;/font&gt;&lt;font color=&quot;#66ffff&quot; style=&quot;font-size: 11px&quot;&gt;i&lt;/font&gt;&lt;font color=&quot;#ffff66&quot; style=&quot;font-size: 11px&quot;&gt;&amp;nbsp;++;)&lt;/font&gt;" style="whiteSpace=wrap;html=1;labelBorderColor=none;fontSize=6;strokeWidth=1;fontStyle=0;sketch=0;shadow=1;strokeColor=#000000;fillColor=#000000;" parent="1" vertex="1">
                    <mxGeometry x="551" y="625" width="108" height="35" as="geometry"/>
                </mxCell>
                <mxCell id="180" value="" style="edgeStyle=none;html=1;labelBackgroundColor=#CC0000;fontSize=25;fontColor=#FF9999;strokeWidth=3;entryX=0;entryY=0.5;entryDx=0;entryDy=0;sketch=0;shadow=1;strokeColor=#000000;" parent="1" source="165" target="181" edge="1">
                    <mxGeometry relative="1" as="geometry">
                        <mxPoint x="702" y="704.0000000000002" as="targetPoint"/>
                    </mxGeometry>
                </mxCell>
                <mxCell id="192" value="" style="edgeStyle=none;html=1;labelBackgroundColor=#CC0000;fontSize=9;fontColor=#CC99FF;strokeWidth=3;entryX=0;entryY=0.75;entryDx=0;entryDy=0;sketch=0;shadow=1;strokeColor=#000000;" parent="1" source="165" target="163" edge="1">
                    <mxGeometry relative="1" as="geometry">
                        <mxPoint x="528" y="757" as="targetPoint"/>
                        <Array as="points">
                            <mxPoint x="517" y="757"/>
                            <mxPoint x="517" y="650"/>
                        </Array>
                    </mxGeometry>
                </mxCell>
                <mxCell id="165" value="&lt;font style=&quot;font-size: 9px&quot; color=&quot;#66ffff&quot;&gt;array&lt;/font&gt;&lt;font style=&quot;font-size: 9px&quot; color=&quot;#ffff66&quot;&gt;[&lt;/font&gt;&lt;font style=&quot;font-size: 9px&quot; color=&quot;#66ffff&quot;&gt;i&lt;/font&gt;&lt;font style=&quot;font-size: 9px&quot; color=&quot;#ffff66&quot;&gt;]&lt;/font&gt;&lt;font style=&quot;font-size: 9px&quot; color=&quot;#ffffcc&quot;&gt;.&lt;/font&gt;&lt;font style=&quot;font-size: 9px&quot; color=&quot;#66ffff&quot;&gt;Length&lt;/font&gt;&lt;font style=&quot;font-size: 9px&quot; color=&quot;#ffffff&quot;&gt; &lt;/font&gt;&lt;font style=&quot;font-size: 9px&quot; color=&quot;#ffffcc&quot;&gt;&amp;gt;&lt;/font&gt;&lt;font style=&quot;font-size: 9px&quot; color=&quot;#ffffff&quot;&gt; &lt;/font&gt;&lt;font style=&quot;font-size: 9px&quot; color=&quot;#ffff66&quot;&gt;3&lt;/font&gt;" style="whiteSpace=wrap;html=1;fontSize=13;labelBorderColor=none;fontStyle=0;sketch=0;shadow=1;strokeColor=#000000;fillColor=#000000;" parent="1" vertex="1">
                    <mxGeometry x="561.5" y="746" width="88" height="22" as="geometry"/>
                </mxCell>
                <mxCell id="171" value="&lt;font color=&quot;#99ff33&quot; style=&quot;font-size: 11px&quot;&gt;Print element in array&amp;nbsp;&lt;/font&gt;&lt;font color=&quot;#ffff66&quot; style=&quot;font-size: 11px&quot;&gt;(&lt;/font&gt;&lt;font color=&quot;#66ffff&quot; style=&quot;font-size: 11px&quot;&gt;i&lt;/font&gt;&lt;font color=&quot;#ffff66&quot; style=&quot;font-size: 11px&quot;&gt;&amp;nbsp;++;)&lt;/font&gt;" style="whiteSpace=wrap;html=1;labelBorderColor=none;fontSize=6;strokeWidth=1;fontStyle=0;sketch=0;shadow=1;strokeColor=#000000;fillColor=#000000;" parent="1" vertex="1">
                    <mxGeometry x="551" y="438.5" width="108" height="33" as="geometry"/>
                </mxCell>
                <mxCell id="172" value="&lt;font color=&quot;#99ff33&quot; style=&quot;font-size: 11px&quot;&gt;Insert element&lt;br&gt;to array&amp;nbsp;&lt;/font&gt;&lt;font color=&quot;#ffff66&quot; style=&quot;font-size: 11px&quot;&gt;(&lt;/font&gt;&lt;font color=&quot;#66ffff&quot; style=&quot;font-size: 11px&quot;&gt;i&lt;/font&gt;&lt;font color=&quot;#ffff66&quot; style=&quot;font-size: 11px&quot;&gt;&amp;nbsp;++;)&lt;/font&gt;" style="whiteSpace=wrap;html=1;labelBorderColor=none;fontSize=6;strokeWidth=1;fontStyle=0;sketch=0;shadow=1;strokeColor=#000000;fillColor=#000000;" parent="1" vertex="1">
                    <mxGeometry x="551.5" y="264" width="108" height="33" as="geometry"/>
                </mxCell>
                <mxCell id="189" value="" style="edgeStyle=none;html=1;labelBackgroundColor=#CC0000;fontSize=9;fontColor=#CC99FF;strokeWidth=3;entryX=1;entryY=0.5;entryDx=0;entryDy=0;sketch=0;shadow=1;strokeColor=#000000;" parent="1" source="181" target="163" edge="1">
                    <mxGeometry relative="1" as="geometry">
                        <mxPoint x="649" y="704" as="targetPoint"/>
                        <Array as="points">
                            <mxPoint x="737" y="642"/>
                        </Array>
                    </mxGeometry>
                </mxCell>
                <mxCell id="181" value="&lt;font style=&quot;font-size: 9px&quot;&gt;&lt;span style=&quot;font-size: 9px&quot;&gt;&lt;font style=&quot;font-size: 9px&quot;&gt;&lt;font color=&quot;#66ffff&quot;&gt;array.Length&lt;/font&gt;&lt;/font&gt;&lt;font color=&quot;#ffff66&quot; style=&quot;font-size: 9px&quot;&gt;&amp;nbsp;--;&lt;br style=&quot;font-size: 9px&quot;&gt;&lt;/font&gt;&lt;/span&gt;&lt;/font&gt;" style="rhombus;whiteSpace=wrap;html=1;labelBorderColor=none;fontSize=9;strokeWidth=1;verticalAlign=middle;spacing=2;fontStyle=0;sketch=0;shadow=1;strokeColor=#000000;fillColor=#000000;" parent="1" vertex="1">
                    <mxGeometry x="682" y="726" width="110" height="62" as="geometry"/>
                </mxCell>
                <mxCell id="187" value="" style="edgeStyle=none;html=1;labelBackgroundColor=#CC0000;fontSize=9;fontColor=#66FFFF;strokeWidth=3;sketch=0;shadow=1;strokeColor=#000000;" parent="1" source="186" target="165" edge="1">
                    <mxGeometry relative="1" as="geometry"/>
                </mxCell>
                <mxCell id="186" value="&lt;font size=&quot;1&quot; color=&quot;#cc99ff&quot;&gt;if&lt;/font&gt;" style="whiteSpace=wrap;html=1;fontSize=13;labelBorderColor=none;fontStyle=0;sketch=0;shadow=1;strokeColor=#000000;fillColor=#1A1A1A;" parent="1" vertex="1">
                    <mxGeometry x="561" y="693" width="88" height="22" as="geometry"/>
                </mxCell>
                <mxCell id="190" value="Yes" style="text;html=1;resizable=0;autosize=1;align=center;verticalAlign=middle;points=[];rounded=0;labelBorderColor=none;fontSize=14;fontStyle=1;sketch=0;shadow=1;strokeColor=#000000;fontColor=#3333FF;" parent="1" vertex="1">
                    <mxGeometry x="649" y="726" width="44" height="22" as="geometry"/>
                </mxCell>
                <mxCell id="193" value="&lt;font color=&quot;#cc0000&quot; style=&quot;font-size: 14px;&quot;&gt;No&lt;/font&gt;" style="text;html=1;resizable=0;autosize=1;align=center;verticalAlign=middle;points=[];rounded=0;labelBorderColor=none;fontSize=14;fontStyle=1;sketch=0;shadow=1;strokeColor=#000000;" parent="1" vertex="1">
                    <mxGeometry x="528" y="726" width="33" height="22" as="geometry"/>
                </mxCell>
                <mxCell id="202" value="&lt;b&gt;&lt;font color=&quot;#6600cc&quot;&gt;return&lt;/font&gt;&lt;/b&gt; &lt;font color=&quot;#007fff&quot;&gt;&lt;b&gt;count&lt;/b&gt;&lt;/font&gt;;" style="text;html=1;resizable=0;autosize=1;align=center;verticalAlign=middle;points=[];rounded=0;labelBorderColor=none;fontSize=15;sketch=0;shadow=1;strokeColor=#000000;" parent="1" vertex="1">
                    <mxGeometry x="252" y="544.5" width="110" height="22" as="geometry"/>
                </mxCell>
                <mxCell id="207" value="" style="edgeStyle=none;html=1;labelBackgroundColor=#CC0000;fontSize=10;fontColor=#99FF33;strokeWidth=3;entryX=0;entryY=0.5;entryDx=0;entryDy=0;exitX=1;exitY=0.5;exitDx=0;exitDy=0;sketch=0;shadow=1;strokeColor=#000000;" parent="1" source="210" target="217" edge="1">
                    <mxGeometry relative="1" as="geometry">
                        <mxPoint x="335.5" y="855" as="targetPoint"/>
                        <mxPoint x="305.9915809167446" y="854.8601496725912" as="sourcePoint"/>
                    </mxGeometry>
                </mxCell>
                <mxCell id="208" value="" style="edgeStyle=none;html=1;labelBackgroundColor=#CC0000;fontSize=11;fontColor=#99FF33;strokeWidth=3;exitX=0.5;exitY=1;exitDx=0;exitDy=0;entryX=0.5;entryY=0;entryDx=0;entryDy=0;sketch=0;shadow=1;strokeColor=#000000;" parent="1" source="210" target="213" edge="1">
                    <mxGeometry relative="1" as="geometry">
                        <mxPoint x="156" y="883" as="sourcePoint"/>
                        <mxPoint x="155.57" y="946" as="targetPoint"/>
                    </mxGeometry>
                </mxCell>
                <mxCell id="209" value="" style="edgeStyle=none;html=1;labelBackgroundColor=#CC0000;fontSize=14;fontColor=#66FFFF;strokeWidth=3;sketch=0;shadow=1;strokeColor=#000000;" parent="1" edge="1">
                    <mxGeometry relative="1" as="geometry">
                        <mxPoint x="391" y="872.5" as="sourcePoint"/>
                        <mxPoint x="391" y="905.5" as="targetPoint"/>
                    </mxGeometry>
                </mxCell>
                <mxCell id="210" value="&lt;span style=&quot;font-family: &amp;#34;helvetica&amp;#34; ; font-size: 10px ; font-style: normal ; letter-spacing: normal ; text-indent: 0px ; text-transform: none ; word-spacing: 0px ; background-color: rgb(42 , 42 , 42)&quot;&gt;&lt;font color=&quot;#ffff66&quot;&gt;&amp;nbsp;i&amp;nbsp;&lt;/font&gt;&lt;span style=&quot;color: rgb(153 , 255 , 51)&quot;&gt;&amp;nbsp;&lt;/span&gt;&lt;font color=&quot;#ffff66&quot; style=&quot;color: rgb(153 , 255 , 51)&quot;&gt;&amp;lt;&lt;/font&gt;&lt;font color=&quot;#99ff33&quot;&gt;&amp;nbsp;&amp;nbsp;&lt;/font&gt;&lt;font color=&quot;#66ffff&quot;&gt;inputA&lt;/font&gt;&lt;font color=&quot;#66ffff&quot;&gt;rray&lt;font color=&quot;#99ff33&quot;&gt;.&lt;/font&gt;Length&lt;/font&gt;&lt;/span&gt;" style="rhombus;whiteSpace=wrap;html=1;fontSize=13;labelBorderColor=none;align=center;fontStyle=0;sketch=0;shadow=1;strokeColor=#000000;fillColor=#000000;" parent="1" vertex="1">
                    <mxGeometry x="77" y="826.5" width="154" height="55" as="geometry"/>
                </mxCell>
                <mxCell id="211" value="Yes" style="text;html=1;resizable=0;autosize=1;align=center;verticalAlign=middle;points=[];rounded=0;labelBorderColor=none;fontSize=14;fontStyle=1;sketch=0;shadow=1;strokeColor=#000000;fontColor=#3333FF;" parent="1" vertex="1">
                    <mxGeometry x="285" y="826.5" width="44" height="22" as="geometry"/>
                </mxCell>
                <mxCell id="212" value="" style="edgeStyle=none;html=1;labelBackgroundColor=#CC0000;fontSize=11;fontColor=#B3FF66;strokeWidth=3;entryX=1;entryY=0.5;entryDx=0;entryDy=0;exitX=0.5;exitY=0;exitDx=0;exitDy=0;sketch=0;shadow=1;strokeColor=#000000;" parent="1" source="217" target="216" edge="1">
                    <mxGeometry relative="1" as="geometry">
                        <mxPoint x="315.594827586207" y="879" as="sourcePoint"/>
                        <mxPoint x="315.5000000000001" y="808.4999999999999" as="targetPoint"/>
                        <Array as="points">
                            <mxPoint x="396" y="708"/>
                        </Array>
                    </mxGeometry>
                </mxCell>
                <mxCell id="235" value="" style="edgeStyle=none;html=1;labelBackgroundColor=#CC0000;fontSize=9;fontColor=#66FFFF;strokeWidth=3;sketch=0;shadow=1;strokeColor=#000000;" parent="1" source="213" target="234" edge="1">
                    <mxGeometry relative="1" as="geometry"/>
                </mxCell>
                <mxCell id="213" value="&lt;span style=&quot;font-size: 11px&quot;&gt;&lt;font color=&quot;#ff9999&quot;&gt;&lt;b&gt;End cycle&amp;nbsp;&lt;/b&gt;&lt;/font&gt;&lt;/span&gt;" style="shape=parallelogram;perimeter=parallelogramPerimeter;whiteSpace=wrap;html=1;fixedSize=1;fontSize=13;labelBorderColor=none;sketch=0;shadow=1;strokeColor=#000000;fillColor=#000000;" parent="1" vertex="1">
                    <mxGeometry x="108" y="924.5" width="92" height="34" as="geometry"/>
                </mxCell>
                <mxCell id="214" value="&lt;font color=&quot;#cc0000&quot; style=&quot;font-size: 14px;&quot;&gt;No&lt;/font&gt;" style="text;html=1;resizable=0;autosize=1;align=center;verticalAlign=middle;points=[];rounded=0;labelBorderColor=none;fontSize=14;fontStyle=1;sketch=0;shadow=1;strokeColor=#000000;" parent="1" vertex="1">
                    <mxGeometry x="121" y="883.5" width="33" height="22" as="geometry"/>
                </mxCell>
                <mxCell id="215" value="" style="edgeStyle=none;html=1;labelBackgroundColor=#CC0000;fontSize=11;fontColor=#FFFF66;strokeWidth=3;entryX=0.5;entryY=0;entryDx=0;entryDy=0;sketch=0;shadow=1;strokeColor=#000000;" parent="1" source="216" target="210" edge="1">
                    <mxGeometry relative="1" as="geometry"/>
                </mxCell>
                <mxCell id="216" value="&lt;span style=&quot;font-weight: normal&quot;&gt;&lt;font style=&quot;font-family: &amp;#34;helvetica&amp;#34; ; font-size: 11px ; letter-spacing: normal ; text-align: center ; text-indent: 0px ; text-transform: none ; word-spacing: 0px ; background-color: rgb(42 , 42 , 42)&quot; color=&quot;#007fff&quot;&gt;int &lt;/font&gt;&lt;font style=&quot;font-family: &amp;#34;helvetica&amp;#34; ; font-size: 11px ; letter-spacing: normal ; text-align: center ; text-indent: 0px ; text-transform: none ; word-spacing: 0px ; background-color: rgb(42 , 42 , 42)&quot; color=&quot;#66ffff&quot;&gt;count &lt;/font&gt;&lt;/span&gt;&lt;font color=&quot;#ffff66&quot; style=&quot;font-family: &amp;#34;helvetica&amp;#34; ; font-size: 11px ; letter-spacing: normal ; text-align: center ; text-indent: 0px ; text-transform: none ; word-spacing: 0px ; background-color: rgb(42 , 42 , 42)&quot;&gt;&lt;span style=&quot;font-weight: normal&quot;&gt;= 0;&lt;/span&gt;&lt;br&gt;Cycle&lt;/font&gt;&lt;span style=&quot;color: rgb(204 , 153 , 255) ; font-family: &amp;#34;helvetica&amp;#34; ; font-size: 11px ; letter-spacing: normal ; text-align: center ; text-indent: 0px ; text-transform: none ; word-spacing: 0px ; background-color: rgb(42 , 42 , 42) ; display: inline ; float: none&quot;&gt;&lt;span&gt;&amp;nbsp;&lt;/span&gt;for&lt;/span&gt;" style="whiteSpace=wrap;html=1;fontSize=13;labelBorderColor=none;fontStyle=3;sketch=0;shadow=1;strokeColor=#000000;fillColor=#000000;" parent="1" vertex="1">
                    <mxGeometry x="94" y="680" width="120" height="55" as="geometry"/>
                </mxCell>
                <mxCell id="217" value="&lt;font color=&quot;#99ff33&quot; style=&quot;font-size: 11px&quot;&gt;Add element&lt;br&gt;in array &amp;lt;= 3&amp;nbsp;&lt;/font&gt;&lt;font color=&quot;#ffff66&quot; style=&quot;font-size: 11px&quot;&gt;(&lt;/font&gt;&lt;font color=&quot;#66ffff&quot; style=&quot;font-size: 11px&quot;&gt;i&lt;/font&gt;&lt;font color=&quot;#ffff66&quot; style=&quot;font-size: 11px&quot;&gt;&amp;nbsp;++;)&lt;/font&gt;" style="whiteSpace=wrap;html=1;labelBorderColor=none;fontSize=6;strokeWidth=1;fontStyle=0;sketch=0;shadow=1;strokeColor=#000000;fillColor=#000000;" parent="1" vertex="1">
                    <mxGeometry x="342" y="837.5" width="108" height="33" as="geometry"/>
                </mxCell>
                <mxCell id="218" value="" style="edgeStyle=none;html=1;labelBackgroundColor=#CC0000;fontSize=25;fontColor=#FF9999;strokeWidth=3;entryX=0;entryY=0.5;entryDx=0;entryDy=0;exitX=1;exitY=0.5;exitDx=0;exitDy=0;sketch=0;shadow=1;strokeColor=#000000;" parent="1" source="220" edge="1">
                    <mxGeometry relative="1" as="geometry">
                        <mxPoint x="478" y="969.5" as="targetPoint"/>
                    </mxGeometry>
                </mxCell>
                <mxCell id="219" value="" style="edgeStyle=none;html=1;labelBackgroundColor=#CC0000;fontSize=9;fontColor=#CC99FF;strokeWidth=3;entryX=0;entryY=0.75;entryDx=0;entryDy=0;sketch=0;shadow=1;strokeColor=#000000;" parent="1" source="220" target="217" edge="1">
                    <mxGeometry relative="1" as="geometry">
                        <mxPoint x="313" y="969.5" as="targetPoint"/>
                        <Array as="points">
                            <mxPoint x="302" y="969.5"/>
                            <mxPoint x="302" y="862.5"/>
                        </Array>
                    </mxGeometry>
                </mxCell>
                <mxCell id="220" value="&lt;font color=&quot;#ffff66&quot; style=&quot;font-family: &amp;#34;helvetica&amp;#34; ; font-size: 10px&quot;&gt;&amp;nbsp;&lt;/font&gt;&lt;font color=&quot;#66ffff&quot; style=&quot;font-family: &amp;#34;helvetica&amp;#34; ; font-size: 10px&quot;&gt;inputA&lt;/font&gt;&lt;font color=&quot;#66ffff&quot; style=&quot;font-family: &amp;#34;helvetica&amp;#34; ; font-size: 10px&quot;&gt;rray[&lt;/font&gt;&lt;font style=&quot;font-family: &amp;#34;helvetica&amp;#34; ; font-size: 10px&quot;&gt;&lt;font color=&quot;#ffffcc&quot;&gt;i&lt;/font&gt;&lt;font color=&quot;#66ffff&quot;&gt;]&lt;/font&gt;&lt;font color=&quot;#99ff33&quot; style=&quot;color: rgb(102 , 255 , 255)&quot;&gt;.&lt;/font&gt;&lt;font color=&quot;#66ffff&quot;&gt;Length &lt;/font&gt;&lt;font color=&quot;#ffffcc&quot;&gt;&amp;lt;=&lt;/font&gt;&lt;font color=&quot;#66ffff&quot;&gt; &lt;/font&gt;&lt;font color=&quot;#ffff66&quot;&gt;3&lt;/font&gt;&lt;/font&gt;" style="whiteSpace=wrap;html=1;fontSize=13;labelBorderColor=none;fontStyle=0;sketch=0;shadow=1;strokeColor=#000000;fillColor=#000000;" parent="1" vertex="1">
                    <mxGeometry x="329" y="958.5" width="121" height="22" as="geometry"/>
                </mxCell>
                <mxCell id="221" value="" style="edgeStyle=none;html=1;labelBackgroundColor=#CC0000;fontSize=9;fontColor=#CC99FF;strokeWidth=3;entryX=1;entryY=0.5;entryDx=0;entryDy=0;exitX=0.5;exitY=0;exitDx=0;exitDy=0;sketch=0;shadow=1;strokeColor=#000000;" parent="1" target="217" edge="1">
                    <mxGeometry relative="1" as="geometry">
                        <mxPoint x="565.9999999999998" y="947.5" as="sourcePoint"/>
                        <mxPoint x="434" y="916.5" as="targetPoint"/>
                        <Array as="points">
                            <mxPoint x="566" y="854.5"/>
                        </Array>
                    </mxGeometry>
                </mxCell>
                <mxCell id="222" value="" style="edgeStyle=none;html=1;labelBackgroundColor=#CC0000;fontSize=9;fontColor=#66FFFF;strokeWidth=3;entryX=0.5;entryY=0;entryDx=0;entryDy=0;exitX=0.5;exitY=1;exitDx=0;exitDy=0;sketch=0;shadow=1;strokeColor=#000000;" parent="1" source="223" target="220" edge="1">
                    <mxGeometry relative="1" as="geometry">
                        <mxPoint x="393" y="949.5" as="targetPoint"/>
                    </mxGeometry>
                </mxCell>
                <mxCell id="223" value="&lt;font size=&quot;1&quot; color=&quot;#cc99ff&quot;&gt;if&lt;/font&gt;" style="whiteSpace=wrap;html=1;fontSize=13;labelBorderColor=none;fontStyle=0;sketch=0;shadow=1;strokeColor=#000000;fillColor=#000000;" parent="1" vertex="1">
                    <mxGeometry x="346" y="905.5" width="88" height="22" as="geometry"/>
                </mxCell>
                <mxCell id="224" value="Yes" style="text;html=1;resizable=0;autosize=1;align=center;verticalAlign=middle;points=[];rounded=0;labelBorderColor=none;fontSize=14;fontStyle=1;sketch=0;shadow=1;strokeColor=#000000;fontColor=#3333FF;" parent="1" vertex="1">
                    <mxGeometry x="434" y="938.5" width="44" height="22" as="geometry"/>
                </mxCell>
                <mxCell id="225" value="&lt;font color=&quot;#cc0000&quot; style=&quot;font-size: 14px;&quot;&gt;No&lt;/font&gt;" style="text;html=1;resizable=0;autosize=1;align=center;verticalAlign=middle;points=[];rounded=0;labelBorderColor=none;fontSize=14;fontStyle=1;sketch=0;shadow=1;strokeColor=#000000;" parent="1" vertex="1">
                    <mxGeometry x="313" y="938.5" width="33" height="22" as="geometry"/>
                </mxCell>
                <mxCell id="227" value="&lt;font style=&quot;font-size: 9px&quot;&gt;&lt;font color=&quot;#66ffff&quot; style=&quot;font-size: 9px&quot;&gt;SortedArray&lt;/font&gt;&lt;font style=&quot;font-size: 9px&quot; color=&quot;#ffff66&quot;&gt;[&lt;/font&gt;&lt;font color=&quot;#66ffff&quot; style=&quot;font-size: 9px&quot;&gt;count&lt;/font&gt;&lt;font style=&quot;font-size: 9px&quot; color=&quot;#ffff66&quot;&gt;]&lt;/font&gt;&lt;font style=&quot;font-size: 9px&quot; color=&quot;#0000cc&quot;&gt;&amp;nbsp;&lt;/font&gt;&lt;font style=&quot;font-size: 9px&quot;&gt;&lt;font color=&quot;#66ffff&quot;&gt;= &lt;/font&gt;&lt;b&gt;&lt;font color=&quot;#007fff&quot;&gt;inputArray&lt;/font&gt;&lt;/b&gt;&lt;/font&gt;&lt;font style=&quot;font-size: 9px&quot; color=&quot;#ffff66&quot;&gt;[&lt;/font&gt;&lt;font color=&quot;#66ffff&quot; style=&quot;font-size: 9px&quot;&gt;i&lt;/font&gt;&lt;font style=&quot;font-size: 9px&quot;&gt;&lt;font color=&quot;#ffff66&quot;&gt;];&lt;/font&gt;&lt;br&gt;&lt;/font&gt;&lt;font color=&quot;#66ffff&quot;&gt;count&lt;/font&gt; &lt;font color=&quot;#ffff66&quot;&gt;++;&lt;/font&gt;&lt;/font&gt;" style="whiteSpace=wrap;html=1;labelBorderColor=none;fontSize=7;strokeWidth=1;sketch=0;shadow=1;strokeColor=#000000;fillColor=#000000;" parent="1" vertex="1">
                    <mxGeometry x="478" y="947.5" width="176" height="44" as="geometry"/>
                </mxCell>
                <mxCell id="237" value="" style="edgeStyle=none;html=1;labelBackgroundColor=#CC0000;fontSize=9;fontColor=#66FFFF;strokeWidth=3;sketch=0;shadow=1;strokeColor=#000000;" parent="1" source="234" target="236" edge="1">
                    <mxGeometry relative="1" as="geometry"/>
                </mxCell>
                <mxCell id="240" value="" style="edgeStyle=none;sketch=0;html=1;shadow=1;labelBackgroundColor=#CC0000;fontSize=25;fontColor=#66FFFF;strokeWidth=3;strokeColor=#000000;" parent="1" edge="1">
                    <mxGeometry relative="1" as="geometry">
                        <mxPoint x="88" y="1023" as="sourcePoint"/>
                        <mxPoint x="88" y="352" as="targetPoint"/>
                        <Array as="points">
                            <mxPoint x="33" y="1023"/>
                            <mxPoint x="33" y="693"/>
                            <mxPoint x="33" y="352"/>
                        </Array>
                    </mxGeometry>
                </mxCell>
                <mxCell id="234" value="&lt;font color=&quot;#ffff66&quot; style=&quot;font-weight: 700&quot;&gt;ShowArray&lt;br&gt;&lt;/font&gt;&lt;span style=&quot;color: rgb(102 , 178 , 255)&quot;&gt;(SortedArray)&lt;/span&gt;" style="whiteSpace=wrap;html=1;fontSize=13;labelBorderColor=none;sketch=0;shadow=1;strokeColor=#3700CC;fillColor=#6a00ff;fontColor=#ffffff;" parent="1" vertex="1">
                    <mxGeometry x="90.75" y="991.5" width="126.5" height="44" as="geometry"/>
                </mxCell>
                <mxCell id="236" value="&lt;font style=&quot;font-size: 25px&quot;&gt;&lt;b&gt;End&lt;/b&gt;&lt;/font&gt;" style="ellipse;shape=cloud;whiteSpace=wrap;html=1;fontSize=13;labelBorderColor=none;sketch=0;shadow=1;strokeColor=#BD7000;fillColor=#f0a30a;fontColor=#000000;" parent="1" vertex="1">
                    <mxGeometry x="94.5" y="1067" width="120" height="80" as="geometry"/>
                </mxCell>
                <mxCell id="244" value="&lt;span style=&quot;font-size: 11px&quot;&gt;&lt;font color=&quot;#ff9999&quot;&gt;&lt;b&gt;End cycle&amp;nbsp;&lt;/b&gt;&lt;/font&gt;&lt;/span&gt;" style="shape=parallelogram;perimeter=parallelogramPerimeter;whiteSpace=wrap;html=1;fixedSize=1;fontSize=13;labelBorderColor=none;sketch=0;shadow=1;strokeColor=#000000;fillColor=#000000;" parent="1" vertex="1">
                    <mxGeometry x="243" y="437.5" width="92" height="34" as="geometry"/>
                </mxCell>
                <mxCell id="245" value="&lt;span style=&quot;font-size: 11px&quot;&gt;&lt;font color=&quot;#ff9999&quot;&gt;&lt;b&gt;End cycle&amp;nbsp;&lt;/b&gt;&lt;/font&gt;&lt;/span&gt;" style="shape=parallelogram;perimeter=parallelogramPerimeter;whiteSpace=wrap;html=1;fixedSize=1;fontSize=13;labelBorderColor=none;sketch=0;shadow=1;strokeColor=#000000;fillColor=#000000;" parent="1" vertex="1">
                    <mxGeometry x="243" y="262.5" width="92" height="34" as="geometry"/>
                </mxCell>
            </root>
        </mxGraphModel>
    </diagram>
</mxfile>